subject01_walk1_RRA_states
nRows=4
nColumns=47

# SIMM Motion File Header:
name subject01_walk1_RRA_states
datacolumns 47
datarows 4
otherdata 1
range 0.86900000000000011000 0.87050000000000005000
endheader
time	pelvis_tx	pelvis_ty	pelvis_tz	pelvis_tilt	pelvis_list	pelvis_rotation	hip_flexion_r	hip_adduction_r	hip_rotation_r	knee_angle_r	ankle_angle_r	subtalar_angle_r	mtp_angle_r	hip_flexion_l	hip_adduction_l	hip_rotation_l	knee_angle_l	ankle_angle_l	subtalar_angle_l	mtp_angle_l	lumbar_extension	lumbar_bending	lumbar_rotation	pelvis_tx_u	pelvis_ty_u	pelvis_tz_u	pelvis_tilt_u	pelvis_list_u	pelvis_rotation_u	hip_flexion_r_u	hip_adduction_r_u	hip_rotation_r_u	knee_angle_r_u	ankle_angle_r_u	subtalar_angle_r_u	mtp_angle_r_u	hip_flexion_l_u	hip_adduction_l_u	hip_rotation_l_u	knee_angle_l_u	ankle_angle_l_u	subtalar_angle_l_u	mtp_angle_l_u	lumbar_extension_u	lumbar_bending_u	lumbar_rotation_u
      0.86900000000000011000	      0.60363723412720183000	      1.02911087790549180000	      0.03215278903698954400	      4.79268061909094900000	     -1.52423284942413280000	      3.22416939153946200000	     10.30016955745951400000	      1.83658479082314850000	     -7.08446575893138060000	    -20.60533348001290900000	      5.37182466425522250000	      0.01090922281853608200	      0.05660123087060741500	      5.11944173137352100000	     -5.94326242215181640000	     -3.20164313026265110000	    -66.73420254240282600000	     -5.22263879493589120000	     -0.00422813202568138920	     -0.08710663482262719100	    -15.18142293971664500000	      4.70829809041603560000	     -3.81945005680589490000	     -0.05100345624798117300	      0.19159621926245357000	      0.19628427193793083000	      5.04068378933048500000	     -3.28773464208871770000	    -10.68089954676588400000	   -110.54838482579177000000	     25.69311812008439200000	     11.60388782119702900000	     75.31291603629263400000	     20.84453635989940800000	      0.11689709676613226000	     -0.32375559172734203000	    144.93699050673811000000	    -25.64236431922480400000	    -37.73779127950035000000	   -115.14412261942364000000	     62.93738349969866200000	     -0.00634091248343489600	      0.20314338531354897000	     -4.52054460265197110000	     -5.91988892536142600000	     38.36717302392678900000
      0.86950000000000005000	      0.60361165745240764000	      1.02920666204348370000	      0.03225080414482115600	      4.79520248038219690000	     -1.52580929100252340000	      3.21879424091074640000	     10.24487392401400700000	      1.84934944891978660000	     -7.07858993811684730000	    -20.56761666395571800000	      5.38221159854340140000	      0.01096807552387114200	      0.05643843477484594000	      5.19180605934230680000	     -5.95592002704499100000	     -3.22039377494212880000	    -66.79136398768980600000	     -5.19094188859750720000	     -0.00423127221049146230	     -0.08700448039442297600	    -15.18369452925047000000	      4.70526006376661330000	     -3.80025849646694610000	     -0.05130332161221739400	      0.19153890671026366000	      0.19577553093633585000	      5.04667611752896670000	     -3.01806969217730710000	    -10.81979757918011300000	   -110.63380474575074000000	     25.36541084358870200000	     11.89945525449861000000	     75.55374537061094000000	     20.70361902836408400000	      0.11833594496437906000	     -0.32707717808633524000	    144.52056508176400000000	    -24.98770457633424200000	    -37.26450217325073300000	   -113.50214792780163000000	     63.84773587589475600000	     -0.00621400064362504380	      0.20546059877813291000	     -4.56575257023383330000	     -6.23205524065076140000	     38.39897488779288900000
      0.87000000000000011000	      0.60358593071840716000	      1.02930241538650160000	      0.03234856394369918500	      4.79772720725816540000	     -1.52725096217099200000	      3.21334949544393970000	     10.18953610788412900000	      1.86195010232177880000	     -7.07256622592141500000	    -20.52978036321832200000	      5.39252893489906170000	      0.01102752750976210800	      0.05627413318733864200	      5.26396254308308720000	     -5.96824978295839070000	     -3.23890734797776810000	    -66.84770517767792300000	     -5.15879357431145190000	     -0.00423434556625240740	     -0.08690117927551911600	    -15.18598862937850100000	      4.70206620251468890000	     -3.78105117051470700000	     -0.05160370808857034400	      0.19147303876087185000	      0.19526304222816881000	      5.05214094988442760000	     -2.74866153930414160000	    -10.95928549193422400000	   -110.71709615780584000000	     25.03710436033053500000	     12.19548593728465800000	     75.79081061995050600000	     20.56658649049174100000	      0.11964198542208913000	     -0.33047517287254241000	    144.10561961250869000000	    -24.33098049067653100000	    -36.78950563256628900000	   -111.86309910153567000000	     64.74299536849029800000	     -0.00608512199499191760	      0.20774759165219045000	     -4.61058301838317600000	     -6.54321885805367740000	     38.43024364027196800000
      0.87050000000000005000	      0.60356005364787524000	      1.02939813366139470000	      0.03244606658226110300	      4.80025453324189750000	     -1.52855800672001260000	      3.20783485788139930000	     10.13415719009718600000	      1.87438647113010880000	     -7.06639438027213010000	    -20.49182650266884300000	      5.40277889318461120000	      0.01108754190334015600	      0.05610782952922555700	      5.33591193105649000000	     -5.98025068876196910000	     -3.25718301303530340000	    -66.90322758183468500000	     -5.12620141483070050000	     -0.00423735486230750020	     -0.08679673810648024000	    -15.18830504963841800000	      4.69871702189705330000	     -3.76182833838918910000	     -0.05190467130036273400	      0.19139864457272021000	      0.19474692244010566000	      5.05707744013653300000	     -2.47957696621368530000	    -11.09935741017444900000	   -110.79821655847375000000	     24.70830191588827100000	     12.49194551344312400000	     76.02398710718313200000	     20.43377956106228800000	      0.11995108549468961000	     -0.33460954656397457000	    143.69218695699846000000	    -23.67234206463207300000	    -36.31290312116633600000	   -110.22702230844138000000	     65.62312384429074500000	     -0.00594223479725600970	      0.21000288921037208000	     -4.65503761343501040000	     -6.85332183493462300000	     38.46099749680630000000
